<svg width="400" height="300" xmlns="http://www.w3.org/2000/svg">
  <defs>
    <linearGradient id="agriGradient" x1="0%" y1="0%" x2="100%" y2="100%">
      <stop offset="0%" style="stop-color:#f59e0b;stop-opacity:1" />
      <stop offset="100%" style="stop-color:#d97706;stop-opacity:1" />
    </linearGradient>
  </defs>
  
  <!-- Background -->
  <rect width="100%" height="100%" fill="url(#agriGradient)"/>
  
  <!-- Farm fields -->
  <rect x="0" y="180" width="400" height="120" fill="#059669"/>
  
  <!-- Crop rows -->
  <rect x="20" y="200" width="360" height="8" fill="#10b981"/>
  <rect x="20" y="215" width="360" height="8" fill="#10b981"/>
  <rect x="20" y="230" width="360" height="8" fill="#10b981"/>
  <rect x="20" y="245" width="360" height="8" fill="#10b981"/>
  <rect x="20" y="260" width="360" height="8" fill="#10b981"/>
  <rect x="20" y="275" width="360" height="8" fill="#10b981"/>
  
  <!-- Individual plants -->
  <circle cx="40" cy="204" r="3" fill="#22c55e"/>
  <circle cx="60" cy="204" r="3" fill="#22c55e"/>
  <circle cx="80" cy="204" r="3" fill="#22c55e"/>
  <circle cx="100" cy="204" r="3" fill="#22c55e"/>
  <circle cx="120" cy="204" r="3" fill="#22c55e"/>
  <circle cx="140" cy="204" r="3" fill="#22c55e"/>
  <circle cx="160" cy="204" r="3" fill="#22c55e"/>
  <circle cx="180" cy="204" r="3" fill="#22c55e"/>
  
  <circle cx="40" cy="219" r="3" fill="#22c55e"/>
  <circle cx="60" cy="219" r="3" fill="#22c55e"/>
  <circle cx="80" cy="219" r="3" fill="#22c55e"/>
  <circle cx="100" cy="219" r="3" fill="#22c55e"/>
  <circle cx="120" cy="219" r="3" fill="#22c55e"/>
  <circle cx="140" cy="219" r="3" fill="#22c55e"/>
  <circle cx="160" cy="219" r="3" fill="#22c55e"/>
  <circle cx="180" cy="219" r="3" fill="#22c55e"/>
  
  <!-- Farmer -->
  <circle cx="250" cy="150" r="12" fill="#8b5cf6"/>
  <rect x="246" cy="162" width="8" height="25" fill="#3b82f6"/>
  <rect x="244" cy="175" width="12" height="12" fill="#d97706"/> <!-- work shirt -->
  
  <!-- Farmer's hat -->
  <ellipse cx="250" cy="145" rx="15" ry="4" fill="#92400e"/>
  
  <!-- Hoe in farmer's hand -->
  <rect x="235" y="160" width="3" height="20" fill="#92400e"/>
  <rect x="232" y="158" width="9" height="4" fill="#6b7280"/>
  
  <!-- Basket of vegetables -->
  <ellipse cx="200" cy="190" rx="15" ry="8" fill="#92400e"/>
  <!-- Vegetables in basket -->
  <circle cx="195" cy="185" r="3" fill="#ef4444"/> <!-- tomato -->
  <circle cx="205" cy="185" r="3" fill="#f59e0b"/> <!-- orange -->
  <ellipse cx="200" cy="188" rx="4" ry="2" fill="#10b981"/> <!-- lettuce -->
  
  <!-- Farm animals -->
  <!-- Cow -->
  <ellipse cx="320" cy="170" rx="20" ry="12" fill="#ffffff"/>
  <circle cx="310" cy="165" r="6" fill="#ffffff"/>
  <rect x="305" cy="175" width="4" height="8" fill="#1f2937"/> <!-- legs -->
  <rect x="315" cy="175" width="4" height="8" fill="#1f2937"/>
  <rect x="325" cy="175" width="4" height="8" fill="#1f2937"/>
  <rect x="335" cy="175" width="4" height="8" fill="#1f2937"/>
  
  <!-- Chicken -->
  <circle cx="280" cy="185" r="6" fill="#ffffff"/>
  <circle cx="275" cy="182" r="3" fill="#ffffff"/> <!-- head -->
  <polygon points="272,180 270,182 272,184" fill="#f59e0b"/> <!-- beak -->
  <rect x="278" cy="190" width="2" height="4" fill="#f59e0b"/> <!-- legs -->
  <rect x="282" cy="190" width="2" height="4" fill="#f59e0b"/>
  
  <!-- Farm house -->
  <rect x="50" y="100" width="80" height="60" fill="#dc2626"/>
  <polygon points="50,100 90,70 130,100" fill="#7f1d1d"/>
  <rect x="70" y="130" width="15" height="20" fill="#92400e"/> <!-- door -->
  <rect x="100" y="120" width="12" height="12" fill="#3b82f6"/> <!-- window -->
  
  <!-- Silo -->
  <rect x="350" y="80" width="30" height="80" fill="#6b7280"/>
  <polygon points="350,80 365,60 380,80" fill="#4b5563"/> <!-- cone top -->
  
  <!-- Tractor -->
  <rect x="150" y="250" width="40" height="20" fill="#ef4444"/>
  <circle cx="160" cy="275" r="8" fill="#1f2937"/> <!-- wheel -->
  <circle cx="180" cy="275" r="8" fill="#1f2937"/> <!-- wheel -->
  <rect x="155" y="245" width="8" height="8" fill="#3b82f6"/> <!-- cab -->
  
  <!-- Windmill -->
  <rect x="300" y="50" width="4" height="60" fill="#e5e7eb"/>
  <circle cx="302" cy="50" r="6" fill="#6b7280"/>
  <rect x="302" cy="44" width="25" height="2" fill="#ffffff" transform-origin="302 50" transform="rotate(45)"/>
  <rect x="302" cy="44" width="25" height="2" fill="#ffffff" transform-origin="302 50" transform="rotate(135)"/>
  <rect x="302" cy="44" width="25" height="2" fill="#ffffff" transform-origin="302 50" transform="rotate(225)"/>
  <rect x="302" cy="44" width="25" height="2" fill="#ffffff" transform-origin="302 50" transform="rotate(315)"/>
  
  <!-- Sun -->
  <circle cx="350" cy="40" r="25" fill="#fbbf24"/>
  
  <!-- Clouds -->
  <circle cx="100" cy="30" r="15" fill="#ffffff" opacity="0.8"/>
  <circle cx="115" cy="30" r="20" fill="#ffffff" opacity="0.8"/>
  <circle cx="130" cy="30" r="15" fill="#ffffff" opacity="0.8"/>
  
  <!-- Title text overlay -->
  <rect x="0" y="0" width="400" height="45" fill="rgba(0,0,0,0.7)"/>
  <text x="200" y="28" font-family="Arial, sans-serif" font-size="16" font-weight="bold" 
        text-anchor="middle" fill="#ffffff">Agriculture Project</text>
</svg>