<svg width="400" height="300" xmlns="http://www.w3.org/2000/svg">
  <defs>
    <linearGradient id="healthBg" x1="0%" y1="0%" x2="100%" y2="100%">
      <stop offset="0%" style="stop-color:#ef4444;stop-opacity:1" />
      <stop offset="100%" style="stop-color:#dc2626;stop-opacity:1" />
    </linearGradient>
  </defs>
  
  <!-- Background -->
  <rect width="100%" height="100%" fill="url(#healthBg)"/>
  
  <!-- Mobile clinic -->
  <rect x="80" y="150" width="180" height="80" fill="#ffffff" rx="10"/>
  
  <!-- Clinic windows -->
  <rect x="100" y="170" width="20" height="15" fill="#3b82f6"/>
  <rect x="130" y="170" width="20" height="15" fill="#3b82f6"/>
  <rect x="160" y="170" width="20" height="15" fill="#3b82f6"/>
  <rect x="190" y="170" width="20" height="15" fill="#3b82f6"/>
  <rect x="220" y="170" width="20" height="15" fill="#3b82f6"/>
  
  <!-- Red cross on clinic -->
  <rect x="170" y="200" width="20" height="6" fill="#ef4444"/>
  <rect x="177" y="193" width="6" height="20" fill="#ef4444"/>
  
  <!-- Clinic wheels -->
  <circle cx="110" cy="240" r="12" fill="#1f2937"/>
  <circle cx="220" cy="240" r="12" fill="#1f2937"/>
  
  <!-- Doctor -->
  <circle cx="150" cy="120" r="10" fill="#8b5cf6"/>
  <rect x="147" cy="130" width="6" height="20" fill="#1f2937"/>
  <rect x="144" cy="140" width="12" height="10" fill="#ffffff"/> <!-- white coat -->
  
  <!-- Stethoscope -->
  <circle cx="155" cy="135" r="3" fill="#1f2937"/>
  <path d="M 155 135 Q 160 140 165 135" stroke="#1f2937" stroke-width="2" fill="none"/>
  
  <!-- Patients -->
  <!-- Patient 1 - child -->
  <circle cx="50" cy="200" r="6" fill="#8b5cf6"/>
  <rect x="48" cy="206" width="4" height="15" fill="#10b981"/>
  
  <!-- Patient 2 - adult -->
  <circle cx="300" cy="190" r="8" fill="#8b5cf6"/>
  <rect x="297" cy="198" width="6" height="20" fill="#f59e0b"/>
  
  <!-- Patient 3 - elderly -->
  <circle cx="320" cy="195" r="7" fill="#8b5cf6"/>
  <rect x="318" cy="202" width="4" height="18" fill="#8b5cf6"/>
  <!-- Walking stick -->
  <line x1="325" y1="202" x2="325" y2="220" stroke="#92400e" stroke-width="2"/>
  
  <!-- Medical supplies -->
  <rect x="120" y="100" width="8" height="12" fill="#ffffff"/> <!-- medicine bottle -->
  <rect x="120" y="100" width="8" height="4" fill="#ef4444"/> <!-- label -->
  
  <rect x="200" y="95" width="15" height="8" fill="#ffffff"/> <!-- first aid box -->
  <rect x="205" y="98" width="5" height="2" fill="#ef4444"/> <!-- cross -->
  <rect x="207" y="96" width="1" height="6" fill="#ef4444"/> <!-- cross -->
  
  <!-- Thermometer -->
  <rect x="180" y="85" width="2" height="20" fill="#e5e7eb"/>
  <circle cx="181" cy="105" r="3" fill="#ef4444"/>
  
  <!-- Heart monitor line -->
  <path d="M 20 60 L 40 60 L 50 40 L 60 80 L 70 20 L 80 60 L 380 60" 
        stroke="#10b981" stroke-width="3" fill="none"/>
  
  <!-- Village huts -->
  <rect x="20" y="220" width="40" height="25" fill="#d97706"/>
  <polygon points="20,220 40,205 60,220" fill="#dc2626"/>
  
  <rect x="320" y="225" width="35" height="20" fill="#d97706"/>
  <polygon points="320,225 337,210 355,225" fill="#dc2626"/>
  
  <!-- Trees -->
  <circle cx="370" cy="160" r="20" fill="#10b981"/>
  <rect x="367" cy="175" width="6" height="25" fill="#92400e"/>
  
  <!-- Sun -->
  <circle cx="350" cy="40" r="25" fill="#fbbf24"/>
  
  <!-- Title text overlay -->
  <rect x="0" y="0" width="400" height="45" fill="rgba(0,0,0,0.7)"/>
  <text x="200" y="28" font-family="Arial, sans-serif" font-size="16" font-weight="bold" 
        text-anchor="middle" fill="#ffffff">Healthcare Outreach</text>
</svg>