<svg width="600" height="400" xmlns="http://www.w3.org/2000/svg">
  <defs>
    <linearGradient id="envProjectBg" x1="0%" y1="0%" x2="100%" y2="100%">
      <stop offset="0%" style="stop-color:#10b981;stop-opacity:1" />
      <stop offset="100%" style="stop-color:#047857;stop-opacity:1" />
    </linearGradient>
  </defs>
  
  <!-- Background -->
  <rect width="100%" height="100%" fill="url(#envProjectBg)"/>
  
  <!-- Forest scene -->
  <!-- Large trees -->
  <circle cx="100" cy="200" r="60" fill="#059669"/>
  <rect x="90" cy="250" width="20" height="100" fill="#92400e"/>
  
  <circle cx="200" cy="180" r="70" fill="#10b981"/>
  <rect x="190" cy="240" width="20" height="110" fill="#92400e"/>
  
  <circle cx="320" cy="190" r="65" fill="#059669"/>
  <rect x="312" cy="245" width="18" height="105" fill="#92400e"/>
  
  <circle cx="450" cy="170" r="75" fill="#10b981"/>
  <rect x="442" cy="235" width="18" height="115" fill="#92400e"/>
  
  <circle cx="520" cy="200" r="55" fill="#059669"/>
  <rect x="514" cy="245" width="14" height="105" fill="#92400e"/>
  
  <!-- Medium trees -->
  <circle cx="60" cy="250" r="40" fill="#10b981"/>
  <rect x="54" cy="285" width="12" height="65" fill="#92400e"/>
  
  <circle cx="150" cy="260" r="45" fill="#059669"/>
  <rect x="145" cy="300" width="12" height="50" fill="#92400e"/>
  
  <circle cx="250" cy="240" r="35" fill="#10b981"/>
  <rect x="246" cy="270" width="10" height="80" fill="#92400e"/>
  
  <circle cx="380" cy="250" r="40" fill="#059669"/>
  <rect x="376" cy="285" width="10" height="65" fill="#92400e"/>
  
  <circle cx="480" cy="260" r="35" fill="#10b981"/>
  <rect x="477" cy="290" width="8" height="60" fill="#92400e"/>
  
  <circle cx="550" cy="270" r="30" fill="#059669"/>
  <rect x="548" cy="295" width="6" height="55" fill="#92400e"/>
  
  <!-- People planting trees -->
  <!-- Person 1 -->
  <circle cx="300" cy="300" r="10" fill="#8b5cf6"/>
  <rect x="297" cy="310" width="6" height="22" fill="#10b981"/>
  <!-- Bent over planting -->
  <rect x="294" cy="315" width="12" height="8" fill="#f59e0b"/>
  
  <!-- Small tree being planted -->
  <circle cx="285" cy="330" r="8" fill="#10b981"/>
  <rect x="283" cy="335" width="4" height="15" fill="#92400e"/>
  
  <!-- Person 2 -->
  <circle cx="350" cy="305" r="8" fill="#8b5cf6"/>
  <rect x="348" cy="313" width="4" height="18" fill="#ef4444"/>
  <!-- Watering can -->
  <rect x="340" cy="310" width="8" height="6" fill="#6b7280"/>
  <!-- Water drops -->
  <circle cx="335" cy="320" r="1" fill="#06b6d4"/>
  <circle cx="337" cy="322" r="1" fill="#06b6d4"/>
  <circle cx="333" cy="324" r="1" fill="#06b6d4"/>
  
  <!-- Young tree being watered -->
  <circle cx="330" cy="330" r="10" fill="#10b981"/>
  <rect x="328" cy="335" width="4" height="15" fill="#92400e"/>
  
  <!-- Person 3 - child -->
  <circle cx="400" cy="315" r="6" fill="#8b5cf6"/>
  <rect x="398" cy="321" width="4" height="15" fill="#8b5cf6"/>
  <!-- Holding seedling -->
  <rect x="395" cy="315" width="3" height="8" fill="#10b981"/>
  
  <!-- Wildlife -->
  <!-- Birds -->
  <path d="M 180 100 Q 190 95 200 100 Q 190 105 180 100" fill="#1f2937"/>
  <path d="M 350 80 Q 360 75 370 80 Q 360 85 350 80" fill="#1f2937"/>
  <path d="M 420 90 Q 430 85 440 90 Q 430 95 420 90" fill="#1f2937"/>
  
  <!-- Butterfly -->
  <ellipse cx="250" cy="120" rx="4" ry="6" fill="#f59e0b"/>
  <ellipse cx="258" cy="120" rx="4" ry="6" fill="#ef4444"/>
  <line x1="254" y1="115" x2="254" y2="125" stroke="#1f2937" stroke-width="1"/>
  
  <!-- Flowers -->
  <circle cx="80" cy="340" r="6" fill="#f59e0b"/>
  <circle cx="80" cy="340" r="3" fill="#fbbf24"/>
  <rect x="78" cy="346" width="4" height="8" fill="#10b981"/>
  
  <circle cx="520" cy="345" r="5" fill="#ef4444"/>
  <circle cx="520" cy="345" r="2" fill="#fbbf24"/>
  <rect x="519" cy="350" width="2" height="6" fill="#10b981"/>
  
  <!-- Recycling bins -->
  <rect x="50" cy="320" width="20" height="25" fill="#10b981"/>
  <text x="60" y="337" font-family="Arial, sans-serif" font-size="8" 
        text-anchor="middle" fill="#ffffff">♻</text>
  
  <rect x="500" cy="325" width="18" height="22" fill="#3b82f6"/>
  <text x="509" y="340" font-family="Arial, sans-serif" font-size="8" 
        text-anchor="middle" fill="#ffffff">♻</text>
  
  <!-- Solar panel -->
  <rect x="150" cy="120" width="40" height="25" fill="#1f2937"/>
  <rect x="155" cy="125" width="30" height="15" fill="#3b82f6"/>
  
  <!-- Wind turbine -->
  <rect x="450" cy="80" width="3" height="100" fill="#e5e7eb"/>
  <circle cx="451" cy="80" r="6" fill="#6b7280"/>
  <rect x="451" cy="74" width="30" height="2" fill="#ffffff" transform-origin="451 80" transform="rotate(0)"/>
  <rect x="451" cy="74" width="30" height="2" fill="#ffffff" transform-origin="451 80" transform="rotate(120)"/>
  <rect x="451" cy="74" width="30" height="2" fill="#ffffff" transform-origin="451 80" transform="rotate(240)"/>
  
  <!-- Sun -->
  <circle cx="500" cy="50" r="35" fill="#fbbf24"/>
  
  <!-- Clouds -->
  <circle cx="150" cy="40" r="20" fill="#ffffff" opacity="0.8"/>
  <circle cx="170" cy="40" r="25" fill="#ffffff" opacity="0.8"/>
  <circle cx="190" cy="40" r="20" fill="#ffffff" opacity="0.8"/>
</svg>