<svg width="800" height="600" xmlns="http://www.w3.org/2000/svg">
  <defs>
    <linearGradient id="eduGradient" x1="0%" y1="0%" x2="100%" y2="100%">
      <stop offset="0%" style="stop-color:#3b82f6;stop-opacity:1" />
      <stop offset="100%" style="stop-color:#1d4ed8;stop-opacity:1" />
    </linearGradient>
    <linearGradient id="lightGradient" x1="0%" y1="0%" x2="100%" y2="100%">
      <stop offset="0%" style="stop-color:#fef3c7;stop-opacity:1" />
      <stop offset="100%" style="stop-color:#f59e0b;stop-opacity:1" />
    </linearGradient>
  </defs>
  
  <!-- Background -->
  <rect width="100%" height="100%" fill="url(#eduGradient)"/>
  
  <!-- Sun -->
  <circle cx="650" cy="100" r="60" fill="url(#lightGradient)" opacity="0.8"/>
  <circle cx="650" cy="100" r="70" fill="none" stroke="#fbbf24" stroke-width="2" opacity="0.6"/>
  <circle cx="650" cy="100" r="80" fill="none" stroke="#fbbf24" stroke-width="1" opacity="0.4"/>
  
  <!-- Mountains -->
  <polygon points="0,400 150,250 300,350 450,200 600,300 800,250 800,600 0,600" fill="#1e40af" opacity="0.6"/>
  
  <!-- School building -->
  <rect x="200" y="350" width="200" height="150" fill="#ffffff" rx="5"/>
  <rect x="210" y="360" width="30" height="40" fill="#3b82f6"/>
  <rect x="250" y="360" width="30" height="40" fill="#3b82f6"/>
  <rect x="290" y="360" width="30" height="40" fill="#3b82f6"/>
  <rect x="330" y="360" width="30" height="40" fill="#3b82f6"/>
  <rect x="370" y="360" width="20" height="40" fill="#3b82f6"/>
  
  <rect x="210" y="410" width="30" height="40" fill="#3b82f6"/>
  <rect x="250" y="410" width="30" height="40" fill="#3b82f6"/>
  <rect x="290" y="410" width="30" height="40" fill="#3b82f6"/>
  <rect x="330" y="410" width="30" height="40" fill="#3b82f6"/>
  <rect x="370" y="410" width="20" height="40" fill="#3b82f6"/>
  
  <!-- Door -->
  <rect x="270" y="450" width="40" height="50" fill="#8b5cf6"/>
  <circle cx="305" cy="475" r="2" fill="#ffffff"/>
  
  <!-- Roof -->
  <polygon points="180,350 300,280 420,350" fill="#dc2626"/>
  
  <!-- Books floating -->
  <rect x="100" y="200" width="20" height="25" fill="#ef4444" rx="2" transform="rotate(15 110 212)"/>
  <rect x="130" y="180" width="20" height="25" fill="#10b981" rx="2" transform="rotate(-10 140 192)"/>
  <rect x="160" y="210" width="20" height="25" fill="#f59e0b" rx="2" transform="rotate(25 170 222)"/>
  
  <!-- Tree -->
  <circle cx="500" cy="420" r="40" fill="#10b981"/>
  <rect x="495" y="450" width="10" height="50" fill="#92400e"/>
  
  <!-- Children silhouettes -->
  <circle cx="120" cy="450" r="15" fill="#1f2937"/>
  <rect x="115" y="465" width="10" height="35" fill="#1f2937"/>
  <circle cx="160" cy="460" r="12" fill="#1f2937"/>
  <rect x="156" y="472" width="8" height="28" fill="#1f2937"/>
  
  <!-- Clouds -->
  <circle cx="150" cy="80" r="20" fill="#ffffff" opacity="0.8"/>
  <circle cx="170" cy="80" r="25" fill="#ffffff" opacity="0.8"/>
  <circle cx="190" cy="80" r="20" fill="#ffffff" opacity="0.8"/>
  
  <circle cx="550" cy="60" r="15" fill="#ffffff" opacity="0.6"/>
  <circle cx="565" cy="60" r="20" fill="#ffffff" opacity="0.6"/>
  <circle cx="580" cy="60" r="15" fill="#ffffff" opacity="0.6"/>
</svg>