<svg width="800" height="600" xmlns="http://www.w3.org/2000/svg">
  <defs>
    <linearGradient id="envGradient" x1="0%" y1="0%" x2="100%" y2="100%">
      <stop offset="0%" style="stop-color:#10b981;stop-opacity:1" />
      <stop offset="100%" style="stop-color:#059669;stop-opacity:1" />
    </linearGradient>
    <linearGradient id="skyGradient" x1="0%" y1="0%" x2="0%" y2="100%">
      <stop offset="0%" style="stop-color:#87ceeb;stop-opacity:1" />
      <stop offset="100%" style="stop-color:#10b981;stop-opacity:1" />
    </linearGradient>
    <radialGradient id="sunGradient" cx="50%" cy="50%" r="50%">
      <stop offset="0%" style="stop-color:#fbbf24;stop-opacity:1" />
      <stop offset="100%" style="stop-color:#f59e0b;stop-opacity:1" />
    </radialGradient>
  </defs>
  
  <!-- Background -->
  <rect width="100%" height="100%" fill="url(#skyGradient)"/>
  
  <!-- Sun -->
  <circle cx="650" cy="100" r="50" fill="url(#sunGradient)"/>
  
  <!-- Mountains -->
  <polygon points="0,300 100,200 200,250 300,150 400,200 500,180 600,220 700,160 800,200 800,600 0,600" fill="#065f46" opacity="0.8"/>
  <polygon points="0,350 150,250 250,280 350,200 450,240 550,220 650,260 750,200 800,230 800,600 0,600" fill="#047857" opacity="0.9"/>
  
  <!-- Large trees -->
  <circle cx="150" cy="400" r="60" fill="#10b981"/>
  <rect x="140" cy="450" width="20" height="80" fill="#92400e"/>
  
  <circle cx="300" cy="380" r="70" fill="#059669"/>
  <rect x="290" cy="440" width="20" height="90" fill="#92400e"/>
  
  <circle cx="500" cy="420" r="55" fill="#10b981"/>
  <rect x="492" cy="465" width="16" height="70" fill="#92400e"/>
  
  <circle cx="650" cy="390" r="65" fill="#059669"/>
  <rect x="642" cy="445" width="18" height="85" fill="#92400e"/>
  
  <!-- Smaller trees -->
  <circle cx="80" cy="450" r="35" fill="#10b981"/>
  <rect x="74" cy="475" width="12" height="55" fill="#92400e"/>
  
  <circle cx="220" cy="460" r="40" fill="#059669"/>
  <rect x="214" cy="490" width="12" height="40" fill="#92400e"/>
  
  <circle cx="380" cy="470" r="30" fill="#10b981"/>
  <rect x="376" cy="490" width="8" height="40" fill="#92400e"/>
  
  <circle cx="580" cy="480" r="35" fill="#059669"/>
  <rect x="576" cy="505" width="8" height="25" fill="#92400e"/>
  
  <circle cx="720" cy="450" r="45" fill="#10b981"/>
  <rect x="716" cy="485" width="8" height="45" fill="#92400e"/>
  
  <!-- Flowers -->
  <circle cx="120" cy="520" r="8" fill="#f59e0b"/>
  <circle cx="120" cy="520" r="4" fill="#fbbf24"/>
  <rect x="118" cy="528" width="4" height="12" fill="#10b981"/>
  
  <circle cx="250" cy="530" r="6" fill="#ef4444"/>
  <circle cx="250" cy="530" r="3" fill="#fbbf24"/>
  <rect x="249" cy="536" width="2" height="8" fill="#10b981"/>
  
  <circle cx="450" cy="525" r="7" fill="#8b5cf6"/>
  <circle cx="450" cy="525" r="3" fill="#fbbf24"/>
  <rect x="448" cy="532" width="4" height="10" fill="#10b981"/>
  
  <!-- Birds -->
  <path d="M 100 120 Q 110 115 120 120 Q 110 125 100 120" fill="#1f2937"/>
  <path d="M 180 100 Q 190 95 200 100 Q 190 105 180 100" fill="#1f2937"/>
  <path d="M 280 130 Q 290 125 300 130 Q 290 135 280 130" fill="#1f2937"/>
  
  <!-- Clouds -->
  <circle cx="200" cy="80" r="25" fill="#ffffff" opacity="0.9"/>
  <circle cx="225" cy="80" r="30" fill="#ffffff" opacity="0.9"/>
  <circle cx="250" cy="80" r="25" fill="#ffffff" opacity="0.9"/>
  
  <circle cx="450" cy="60" r="20" fill="#ffffff" opacity="0.7"/>
  <circle cx="470" cy="60" r="25" fill="#ffffff" opacity="0.7"/>
  <circle cx="490" cy="60" r="20" fill="#ffffff" opacity="0.7"/>
  
  <!-- Grass -->
  <rect x="0" cy="580" width="800" height="20" fill="#10b981"/>
  
  <!-- Wind turbine -->
  <rect x="550" cy="300" width="4" height="200" fill="#ffffff"/>
  <circle cx="552" cy="300" r="8" fill="#e5e7eb"/>
  <rect x="552" cy="292" width="40" height="3" fill="#ffffff" transform-origin="552 300" transform="rotate(0)"/>
  <rect x="552" cy="292" width="40" height="3" fill="#ffffff" transform-origin="552 300" transform="rotate(120)"/>
  <rect x="552" cy="292" width="40" height="3" fill="#ffffff" transform-origin="552 300" transform="rotate(240)"/>
  
  <!-- Recycling symbol -->
  <g transform="translate(50,50) scale(0.8)">
    <path d="M 30 10 L 40 30 L 20 30 Z" fill="#10b981" transform="rotate(0 30 20)"/>
    <path d="M 30 10 L 40 30 L 20 30 Z" fill="#10b981" transform="rotate(120 30 20)"/>
    <path d="M 30 10 L 40 30 L 20 30 Z" fill="#10b981" transform="rotate(240 30 20)"/>
  </g>
</svg>