<svg width="600" height="400" xmlns="http://www.w3.org/2000/svg">
  <defs>
    <linearGradient id="waterGradient" x1="0%" y1="0%" x2="100%" y2="100%">
      <stop offset="0%" style="stop-color:#06b6d4;stop-opacity:1" />
      <stop offset="100%" style="stop-color:#0891b2;stop-opacity:1" />
    </linearGradient>
    <linearGradient id="wellGradient" x1="0%" y1="0%" x2="100%" y2="100%">
      <stop offset="0%" style="stop-color:#94a3b8;stop-opacity:1" />
      <stop offset="100%" style="stop-color:#64748b;stop-opacity:1" />
    </linearGradient>
  </defs>
  
  <!-- Background -->
  <rect width="100%" height="100%" fill="url(#waterGradient)"/>
  
  <!-- Ground -->
  <rect x="0" y="300" width="600" height="100" fill="#d97706"/>
  
  <!-- Well structure -->
  <rect x="250" y="220" width="100" height="80" fill="url(#wellGradient)" rx="5"/>
  <rect x="260" y="200" width="80" height="20" fill="#6b7280"/>
  
  <!-- Well opening -->
  <circle cx="300" cy="240" r="30" fill="#1f2937"/>
  <circle cx="300" cy="240" r="25" fill="#0891b2"/>
  
  <!-- Water bucket -->
  <rect x="280" y="180" width="40" height="30" fill="#92400e" rx="5"/>
  <rect x="285" y="185" width="30" height="20" fill="#0891b2"/>
  
  <!-- Rope -->
  <line x1="300" y1="180" x2="300" y2="240" stroke="#8b5cf6" stroke-width="2"/>
  
  <!-- Pulley system -->
  <circle cx="300" cy="180" r="8" fill="#6b7280"/>
  <rect x="290" y="160" width="20" height="15" fill="#92400e"/>
  
  <!-- People around well -->
  <!-- Woman with water jug -->
  <circle cx="180" cy="270" r="12" fill="#8b5cf6"/>
  <rect x="176" cy="282" width="8" height="25" fill="#3b82f6"/>
  <rect x="174" cy="290" width="12" height="15" fill="#ef4444"/> <!-- dress -->
  <ellipse cx="165" cy="275" rx="8" ry="15" fill="#92400e"/> <!-- water jug -->
  
  <!-- Child -->
  <circle cx="420" cy="280" r="8" fill="#8b5cf6"/>
  <rect x="418" cy="288" width="4" height="18" fill="#10b981"/>
  
  <!-- Man -->
  <circle cx="380" cy="275" r="10" fill="#8b5cf6"/>
  <rect x="377" cy="285" width="6" height="22" fill="#1f2937"/>
  
  <!-- Water drops -->
  <circle cx="300" cy="200" r="3" fill="#06b6d4" opacity="0.8"/>
  <circle cx="305" cy="195" r="2" fill="#06b6d4" opacity="0.6"/>
  <circle cx="295" cy="205" r="2" fill="#06b6d4" opacity="0.7"/>
  
  <!-- Trees -->
  <circle cx="100" cy="250" r="40" fill="#10b981"/>
  <rect x="95" cy="280" width="10" height="50" fill="#92400e"/>
  
  <circle cx="500" cy="240" r="35" fill="#059669"/>
  <rect x="497" cy="265" width="8" height="45" fill="#92400e"/>
  
  <!-- Village huts in background -->
  <rect x="50" y="280" width="60" height="40" fill="#d97706"/>
  <polygon points="50,280 80,250 110,280" fill="#dc2626"/>
  
  <rect x="480" y="285" width="50" height="35" fill="#d97706"/>
  <polygon points="480,285 505,260 530,285" fill="#dc2626"/>
  
  <!-- Sun -->
  <circle cx="500" cy="80" r="40" fill="#fbbf24"/>
  
  <!-- Clouds -->
  <circle cx="150" cy="60" r="20" fill="#ffffff" opacity="0.8"/>
  <circle cx="170" cy="60" r="25" fill="#ffffff" opacity="0.8"/>
  <circle cx="190" cy="60" r="20" fill="#ffffff" opacity="0.8"/>
</svg>